<svg xmlns="http://www.w3.org/2000/svg" xmlns:xlink="http://www.w3.org/1999/xlink" xmlns:sketch="http://www.bohemiancoding.com/sketch/ns" width="30px" height="30px" viewBox="0 0 30 30" version="1.1"><title>Path + Shape</title><desc>Created with Sketch.</desc><defs/><g id="Page-1" stroke="none" stroke-width="1" fill="none" fill-rule="evenodd" sketch:type="MSPage"><g id="Path-+-Shape" sketch:type="MSLayerGroup"><path d="M27.9589749,7.46261959 C26.6190205,5.16703872 24.8014579,3.34947608 22.5058087,2.00958998 C20.2097494,0.66977221 17.7032802,0 14.9844875,0 C12.2659681,0 9.75874715,0.66977221 7.46309795,2.00958998 C5.16731207,3.34927107 3.34974943,5.16683371 2.00979499,7.46261959 C0.66977221,9.75854214 0,12.2657631 0,14.9840774 C0,17.7025285 0.669977221,20.2093394 2.00958998,22.5053986 C3.34947608,24.8009795 5.16703872,26.6185421 7.4628246,27.9585649 C9.75874715,29.2983144 12.2657631,29.9681549 14.9842141,29.9681549 C17.7026651,29.9681549 20.2099544,29.2983144 22.5057403,27.9585649 C24.8013895,26.6190205 26.6188838,24.8009795 27.9587016,22.5053986 C29.2983144,20.2095444 29.9680182,17.7023918 29.9680182,14.9840774 C29.9680866,12.2654897 29.2983144,9.75820046 27.9589749,7.46261959 L27.9589749,7.46261959 Z" id="Path" fill="#FF4136" sketch:type="MSShapeGroup"/><path d="M22.0469932,18.5151936 C22.2941686,18.7620957 22.4179271,19.0553986 22.4179271,19.3935991 C22.4179271,19.7443736 22.2941686,20.0437585 22.0469932,20.2906606 L20.2912073,22.0469932 C20.0442369,22.2938952 19.7449203,22.4173804 19.3935991,22.4173804 C19.055467,22.4173804 18.7624374,22.2938952 18.515672,22.0469932 L14.9842825,18.5151936 L11.4527563,22.0469932 C11.2056492,22.2938952 10.9130296,22.4173804 10.5748292,22.4173804 C10.2235763,22.4173804 9.92446469,22.2938952 9.67728929,22.0469932 L7.92123007,20.2906606 C7.67412301,20.0437585 7.55056948,19.7443736 7.55056948,19.3935991 C7.55056948,19.055467 7.67419134,18.762164 7.92123007,18.5151936 L11.4527563,14.9840091 L7.92123007,11.4524829 C7.67412301,11.2056492 7.55056948,10.9127563 7.55056948,10.5745558 C7.55056948,10.223303 7.67419134,9.92419134 7.92123007,9.67701595 L9.67728929,7.92123007 C9.92446469,7.67412301 10.2235763,7.55056948 10.5748292,7.55056948 C10.9130296,7.55056948 11.2056492,7.67419134 11.4527563,7.92123007 L14.9842825,11.4524829 L18.515672,7.92123007 C18.762369,7.67412301 19.0553986,7.55056948 19.3935991,7.55056948 C19.7449203,7.55056948 20.0442369,7.67419134 20.2912073,7.92123007 L22.0469932,9.67701595 C22.2941686,9.92419134 22.4179271,10.223303 22.4179271,10.5745558 C22.4179271,10.9126879 22.2941686,11.2056492 22.0469932,11.4524829 L18.515672,14.9840091 L22.0469932,18.5151936 L22.0469932,18.5151936 Z" id="Shape" fill="#FFFFFF" sketch:type="MSShapeGroup"/></g></g></svg>