<svg xmlns="http://www.w3.org/2000/svg" width="26.995" height="19.802" viewBox="0 0 26.995 19.802"> <path id="email_Icon-Sticky" d="M2.25,6h22.5A2.225,2.225,0,0,1,27,8.2V23.6a2.225,2.225,0,0,1-2.25,2.2H2.25A2.225,2.225,0,0,1,0,23.6V8.2A2.225,2.225,0,0,1,2.25,6Zm14,11.011q.024.025.05.048l6.749,6.051a.857.857,0,0,0,1.192-.051.812.812,0,0,0-.052-1.166l-6.691-6,6.69-5.985a.812.812,0,0,0,.053-1.166.857.857,0,0,0-1.192-.052l-8.6,7.7a1.429,1.429,0,0,1-1.9,0l-8.6-7.7a.857.857,0,0,0-1.192.052.812.812,0,0,0,.053,1.166L9.5,15.894l-6.691,6a.812.812,0,0,0-.052,1.166.857.857,0,0,0,1.192.051l6.749-6.051q.026-.023.05-.048l.667.6a3.145,3.145,0,0,0,4.176,0Z" transform="translate(0 -6)" fill="#000"></path> </svg>