<svg xmlns="http://www.w3.org/2000/svg" xmlns:xlink="http://www.w3.org/1999/xlink" viewBox="0 0 114 181" width="114px" height="181px"><defs><clipPath id="a"><rect width="113.7" height="180.77" fill="#395185"></rect></clipPath></defs><g><rect width="113.7" height="180.77" fill="#395185"></rect><g clip-path="url(#a)"><rect width="113.7" height="180.77" fill="#395185"></rect></g></g><g><path d="M18.9,29.4l-.8-15h2l.3,9c.1,1.9,0,2.9,0,3.9h0c.4-1,.8-2,1.7-3.8l4.3-9.1h2.1l.4,8.6v4.2H29a37.3,37.3,0,0,1,1.5-3.8l4.2-9h2.1l-7.4,15h-2L27,20.8a30.9,30.9,0,0,1,0-4.3h0c-.6,1.4-1,2.6-1.6,4L21,29.4Z" fill="#fff"></path><path d="M40.1,14.6a18.7,18.7,0,0,1,3.5-.4,5.8,5.8,0,0,1,3.7,1.1,3,3,0,0,1,1.2,2.5,4.8,4.8,0,0,1-3.7,4.4h-.1c1.1.4,1.7,1.5,1.8,3.1a29.1,29.1,0,0,0,.5,4.1H45a26,26,0,0,1-.4-3.6c-.1-2.1-.9-3-2.5-3H40.4l-1.3,6.6H37.2Zm.6,6.8h1.7c2.5,0,4.1-1.5,4.1-3.3s-1.3-2.4-3.1-2.4l-1.6.2Z" fill="#fff"></path><polygon points="55.5 14.4 52.5 29.4 50.5 29.4 53.5 14.4 55.5 14.4" fill="#fff"></polygon><polygon points="62.6 16 58 16 58.3 14.4 69.5 14.4 69.2 16 64.6 16 61.9 29.4 59.9 29.4 62.6 16" fill="#fff"></polygon><polygon points="78.6 22.3 72.8 22.3 71.7 27.8 78.2 27.8 77.9 29.4 69.5 29.4 72.5 14.4 80.5 14.4 80.2 15.9 74.1 15.9 73.1 20.8 78.9 20.8 78.6 22.3" fill="#fff"></polygon><path d="M90.3,24.6l-2.5,4.8H85.7l8.2-15h2.3l2.2,15h-2l-.6-4.8Zm5.3-1.4L95,18.8c-.1-.8-.2-1.9-.3-2.8h0c-.5.9-.9,1.9-1.3,2.8L91,23.2Z" fill="#fff"></path><path d="M17.3,39.6a25.8,25.8,0,0,1,4.5-.4,8,8,0,0,1,4.9,1.2,3.9,3.9,0,0,1,1.4,3.2,4.1,4.1,0,0,1-2.7,3.7h0a3.7,3.7,0,0,1,2,2.9c.5,1.6,1,3.6,1.3,4.2H25.2a18.1,18.1,0,0,1-1.1-3.5c-.4-1.9-1-2.4-2.4-2.4h-1v5.9H17.3ZM20.7,46H22c1.7,0,2.7-.8,2.7-2.1s-.9-2.1-2.5-2.1H20.7Z" fill="#fff"></path><polygon points="40.6 48 35.1 48 35.1 51.6 41.2 51.6 41.2 54.4 31.7 54.4 31.7 39.4 40.9 39.4 40.9 42.1 35.1 42.1 35.1 45.3 40.6 45.3 40.6 48" fill="#fff"></polygon><path d="M48.4,54.4l-4.8-15h3.7l1.8,6.3c.5,1.8,1,3.5,1.4,5.4h0c.4-1.8.9-3.6,1.4-5.3l1.9-6.4h3.6l-5,15Z" fill="#fff"></path><rect x="60.1" y="39.4" width="3.4" height="15.04" fill="#fff"></rect><polygon points="76.6 48 71 48 71 51.6 77.2 51.6 77.2 54.4 67.6 54.4 67.6 39.4 76.9 39.4 76.9 42.1 71 42.1 71 45.3 76.6 45.3 76.6 48" fill="#fff"></polygon><path d="M83.2,54.4l-3.5-15h3.6l1.1,6.2c.4,1.7.7,3.7.9,5.2h.1c.2-1.6.6-3.4.9-5.3l1.3-6.1h3.6l1.2,6.3c.4,1.8.6,3.4.8,5h.1c.2-1.6.5-3.4.9-5.2l1.2-6.1h3.4L95,54.4H91.3L90,47.9c-.3-1.5-.5-2.9-.7-4.6h-.1c-.2,1.7-.5,3.1-.8,4.6l-1.5,6.5Z" fill="#fff"></path><line x1="11.2" y1="68.3" x2="103.2" y2="68.3" fill="none" stroke="#fff" stroke-miterlimit="10"></line></g><polygon points="11 86.9 49 86.9 49 88.5 12.6 88.5 12.6 170.2 102.3 170.2 102.3 88.5 84.5 88.5 84.5 86.9 103.9 86.9 103.9 171.8 11 171.8 11 86.9" fill="#fff"></polygon><path d="M63.3,167.5V130.6H75.6l1.9-14.4H63.3v-9.1c0-4.2,1.1-7,7.1-7H78V87.2a92,92,0,0,0-11.1-.6c-11,0-18.5,6.7-18.5,19v10.6H36v14.4H48.4v36.9H63.3" fill="#fff"></path></svg> 