<svg id="a" xmlns="http://www.w3.org/2000/svg" width="27" height="27" viewBox="0 0 27 27"><path id="b" d="m24.77,13.5c0-1.44.89-2.73,2.23-3.24-.34-1.42-.9-2.77-1.67-4.01-.45.2-.93.3-1.41.3-1.92,0-3.47-1.55-3.47-3.46,0-.49.1-.97.3-1.42-1.24-.77-2.59-1.33-4.01-1.67-.69,1.79-2.69,2.68-4.48,2-.92-.35-1.65-1.08-2-2-1.42.34-2.77.9-4.01,1.67.78,1.75,0,3.8-1.75,4.58-.45.2-.93.3-1.42.3-.49,0-.97-.1-1.42-.3-.76,1.25-1.32,2.6-1.66,4.02,1.79.69,2.69,2.7,2,4.49-.35.92-1.08,1.64-1.99,2,.34,1.42.9,2.77,1.67,4.01,1.75-.78,3.8,0,4.58,1.76.4.9.4,1.92,0,2.82,1.24.76,2.6,1.33,4.01,1.67.69-1.79,2.69-2.68,4.48-1.99.92.35,1.64,1.08,1.99,1.99,1.42-.34,2.77-.9,4.01-1.67-.77-1.75.02-3.8,1.78-4.58.89-.39,1.91-.39,2.8,0,.76-1.24,1.33-2.6,1.67-4.01-1.34-.52-2.22-1.81-2.22-3.25Zm-11.21,5.62c-3.11,0-5.62-2.52-5.62-5.63s2.52-5.62,5.63-5.62c3.11,0,5.62,2.52,5.62,5.62,0,3.11-2.52,5.62-5.62,5.63h0Z"/></svg>