<svg xmlns="http://www.w3.org/2000/svg" xmlns:xlink="http://www.w3.org/1999/xlink" viewBox="0 0 114 181" width="114px" height="181px"><defs><clipPath id="a"><rect x="0.2" width="113.7" height="180.77" fill="none"></rect></clipPath></defs><title>Google</title><g clip-path="url(#a)"><rect x="0.2" width="113.7" height="180.77" fill="#ea4335"></rect></g><g><path d="M17.8,29.4l-.8-15h2l.3,9c.1,1.9,0,2.9,0,3.9h0c.4-1,.8-2,1.7-3.8l4.3-9.1h2.1l.4,8.6v4.2h0c.5-1.2,1-2.5,1.6-3.8l4.2-9h2.1l-7.4,15h-2l-.4-8.6a30.9,30.9,0,0,1,0-4.3h0l-1.6,4-4.4,8.9Z" fill="#fff"></path><path d="M39,14.6a18.7,18.7,0,0,1,3.5-.4,5.8,5.8,0,0,1,3.7,1.1,3,3,0,0,1,1.2,2.5c0,2.2-1.8,3.8-3.7,4.4h-.1c1.1.4,1.7,1.5,1.8,3.1a29.1,29.1,0,0,0,.5,4.1h-2a26,26,0,0,1-.4-3.6c-.1-2.1-.9-3-2.5-3H39.3L38,29.4H36Zm.6,6.8h1.7c2.5,0,4.1-1.5,4.1-3.3s-1.3-2.4-3.1-2.4l-1.6.2Z" fill="#fff"></path><polygon points="54.4 14.4 51.4 29.4 49.4 29.4 52.4 14.4 54.4 14.4" fill="#fff"></polygon><polygon points="61.5 16 56.9 16 57.2 14.4 68.4 14.4 68.1 16 63.5 16 60.8 29.4 58.8 29.4 61.5 16" fill="#fff"></polygon><polygon points="77.5 22.3 71.7 22.3 70.6 27.8 77.1 27.8 76.8 29.4 68.4 29.4 71.4 14.4 79.4 14.4 79.1 15.9 73 15.9 72 20.8 77.8 20.8 77.5 22.3" fill="#fff"></polygon><path d="M89.2,24.6l-2.5,4.8H84.6l8.2-15h2.3l2.2,15h-2l-.7-4.8Zm5.3-1.4-.6-4.4c-.1-.8-.2-1.9-.3-2.8h-.1l-1.2,2.8-2.4,4.4Z" fill="#fff"></path><path d="M16.2,39.6a25.8,25.8,0,0,1,4.5-.4,8,8,0,0,1,4.9,1.2A3.9,3.9,0,0,1,27,43.6a4.1,4.1,0,0,1-2.7,3.7h0a3.7,3.7,0,0,1,2,2.9c.5,1.6,1,3.6,1.3,4.2H24.1A18.1,18.1,0,0,1,23,50.9c-.4-1.9-1-2.4-2.4-2.4h-1v5.9H16.2V39.6ZM19.6,46h1.3c1.7,0,2.7-.8,2.7-2.1s-.9-2.1-2.5-2.1H19.6Z" fill="#fff"></path><polygon points="39.5 48 34 48 34 51.6 40.1 51.6 40.1 54.4 30.5 54.4 30.5 39.4 39.8 39.4 39.8 42.1 34 42.1 34 45.3 39.5 45.3 39.5 48" fill="#fff"></polygon><path d="M47.3,54.4l-4.8-15h3.7L48,45.7c.5,1.8,1,3.5,1.4,5.4h0c.4-1.8.9-3.6,1.4-5.3l1.9-6.4h3.6l-5.1,15Z" fill="#fff"></path><rect x="59" y="39.4" width="3.4" height="15.03" fill="#fff"></rect><polygon points="75.5 48 69.9 48 69.9 51.6 76.1 51.6 76.1 54.4 66.5 54.4 66.5 39.4 75.8 39.4 75.8 42.1 69.9 42.1 69.9 45.3 75.5 45.3 75.5 48" fill="#fff"></polygon><path d="M82.1,54.4l-3.5-15h3.6l1.1,6.2c.4,1.7.7,3.7.9,5.2h.1c.2-1.6.6-3.4.9-5.3l1.3-6.1h3.6l1.2,6.3c.4,1.8.6,3.4.8,5h.1c.2-1.6.5-3.4.9-5.2l1.2-6.1h3.4l-3.8,15H90.2l-1.3-6.5c-.3-1.5-.5-2.9-.7-4.6h-.1c-.2,1.7-.5,3.1-.8,4.6l-1.5,6.5Z" fill="#fff"></path><line x1="11.1" y1="68.3" x2="103.1" y2="68.3" fill="none" stroke="#fff" stroke-miterlimit="10"></line></g><g><polygon points="103.9 171.8 11 171.8 11 86.9 35.3 86.9 35.3 88.5 12.6 88.5 12.6 170.2 102.3 170.2 102.3 88.5 80.4 88.5 80.4 86.9 103.9 86.9 103.9 171.8" fill="#fff"></polygon><path d="M95.6,118.2H58.4v15.5H79.3c-3.3,10-8.4,15.5-20.9,15.5S35.7,138.8,35.7,126s9.9-23.2,22.7-23.2c6.7,0,11,2.4,15,5.7,3.2-3.2,2.9-3.7,11.1-11.4A38.9,38.9,0,1,0,58.4,165c32,0,39.8-28,37.2-46.8" fill="#fff"></path></g></svg> 