<svg version="1.1"
	 xmlns="http://www.w3.org/2000/svg" xmlns:xlink="http://www.w3.org/1999/xlink" xmlns:a="http://ns.adobe.com/AdobeSVGViewerExtensions/3.0/"
	 x="0px" y="0px" width="34px" height="27.81px" viewBox="0 0 110 90" overflow="visible" enable-background="new 0 0 110 90"
	 xml:space="preserve">
<defs>
</defs>
<path fill="#000000" d="M81.927,32.216c0.955,0.956,2.196,1.435,3.533,1.435c1.241,0,2.483-0.479,3.533-1.435l18.143-18.177
	c1.91-1.913,1.91-5.07,0-6.984c-1.91-1.913-5.061-1.913-6.971,0L82.022,25.232C80.017,27.146,80.017,30.303,81.927,32.216z"/>
<path fill="#000000" d="M66.076,55.081l10.695-10.715c1.909-1.913,1.909-5.07,0-6.983c-1.91-1.914-5.061-1.914-6.971,0l-6.779,6.792
	v-0.095l-0.191,0.191c-0.955,0.957-2.196,1.435-3.438,1.435c-1.241,0-2.482-0.478-3.438-1.435c-1.909-1.914-1.909-4.975,0-6.888
	l23.967-24.013c1.91-1.913,1.91-5.07,0-6.983c-1.91-1.914-5.061-1.914-6.971,0L60.538,18.822c-0.955,0.957-2.196,1.435-3.438,1.435
	c-1.241,0-2.483-0.478-3.438-1.435L42.109,7.247c-9.644-9.662-25.304-9.662-34.852,0C2.578,11.935,0,18.153,0,24.754
	c0,6.6,2.578,12.819,7.257,17.507L53.568,88.66l0,0C54.522,89.521,55.668,90,56.91,90s2.482-0.479,3.533-1.435l36.38-36.45
	c1.91-1.914,1.91-5.07,0-6.984c-1.91-1.913-4.965-1.913-6.875-0.095l-1.432,1.435L63.116,71.918
	c-0.955,0.957-2.196,1.436-3.438,1.436s-2.482-0.479-3.438-1.436c-1.91-1.913-1.91-4.974,0-6.889"/>
<ellipse fill="#000000" cx="104.557" cy="35.373" rx="5.443" ry="5.453"/>
</svg>
