<svg id="a" xmlns="http://www.w3.org/2000/svg" width="113.7" height="180.77" xmlns:xlink="http://www.w3.org/1999/xlink" viewBox="0 0 113.7 180.77"><defs><clipPath id="b"><rect width="113.7" height="180.77" fill="none"/></clipPath></defs><g><rect width="113.7" height="180.77" fill="#395185"/><g clip-path="url(#b)"><rect width="113.7" height="180.77" fill="#666"/></g></g><g><path d="M18.9,29.4l-.8-15h2l.3,9c.1,1.9,0,2.9,0,3.9h0c.4-1,.8-2,1.7-3.8l4.3-9.1h2.1l.4,8.6v4.2h.1c.43-1.29,.93-2.56,1.5-3.8l4.2-9h2.1l-7.4,15h-2l-.4-8.6c-.1-1.43-.1-2.87,0-4.3h0c-.6,1.4-1,2.6-1.6,4l-4.4,8.9h-2.1Z" fill="#fff"/><path d="M40.1,14.6c1.15-.24,2.32-.38,3.5-.4,1.32-.07,2.63,.32,3.7,1.1,.78,.59,1.23,1.52,1.2,2.5-.12,2.12-1.63,3.92-3.7,4.4h-.1c1.1,.4,1.7,1.5,1.8,3.1,.07,1.38,.24,2.75,.5,4.1h-2c-.22-1.19-.35-2.39-.4-3.6-.1-2.1-.9-3-2.5-3h-1.7l-1.3,6.6h-1.9l2.9-14.8Zm.6,6.8h1.7c2.5,0,4.1-1.5,4.1-3.3s-1.3-2.4-3.1-2.4l-1.6,.2-1.1,5.5Z" fill="#fff"/><polygon points="55.5 14.4 52.5 29.4 50.5 29.4 53.5 14.4 55.5 14.4" fill="#fff"/><polygon points="62.6 16 58 16 58.3 14.4 69.5 14.4 69.2 16 64.6 16 61.9 29.4 59.9 29.4 62.6 16" fill="#fff"/><polygon points="78.6 22.3 72.8 22.3 71.7 27.8 78.2 27.8 77.9 29.4 69.5 29.4 72.5 14.4 80.5 14.4 80.2 15.9 74.1 15.9 73.1 20.8 78.9 20.8 78.6 22.3" fill="#fff"/><path d="M90.3,24.6l-2.5,4.8h-2.1l8.2-15h2.3l2.2,15h-2l-.6-4.8h-5.5Zm5.3-1.4l-.6-4.4c-.1-.8-.2-1.9-.3-2.8h0c-.5,.9-.9,1.9-1.3,2.8l-2.4,4.4h4.6Z" fill="#fff"/><path d="M17.3,39.6c1.49-.26,2.99-.4,4.5-.4,1.72-.14,3.44,.28,4.9,1.2,.94,.79,1.46,1.97,1.4,3.2-.06,1.67-1.13,3.13-2.7,3.7h0c1.11,.57,1.87,1.66,2,2.9,.5,1.6,1,3.6,1.3,4.2h-3.5c-.48-1.13-.85-2.3-1.1-3.5-.4-1.9-1-2.4-2.4-2.4h-1v5.9h-3.4v-14.8Zm3.4,6.4h1.3c1.7,0,2.7-.8,2.7-2.1s-.9-2.1-2.5-2.1h-1.5v4.2Z" fill="#fff"/><polygon points="40.6 48 35.1 48 35.1 51.6 41.2 51.6 41.2 54.4 31.7 54.4 31.7 39.4 40.9 39.4 40.9 42.1 35.1 42.1 35.1 45.3 40.6 45.3 40.6 48" fill="#fff"/><path d="M48.4,54.4l-4.8-15h3.7l1.8,6.3c.5,1.8,1,3.5,1.4,5.4h0c.4-1.8,.9-3.6,1.4-5.3l1.9-6.4h3.6l-5,15h-4Z" fill="#fff"/><rect x="60.1" y="39.4" width="3.4" height="15.04" fill="#fff"/><polygon points="76.6 48 71 48 71 51.6 77.2 51.6 77.2 54.4 67.6 54.4 67.6 39.4 76.9 39.4 76.9 42.1 71 42.1 71 45.3 76.6 45.3 76.6 48" fill="#fff"/><path d="M83.2,54.4l-3.5-15h3.6l1.1,6.2c.4,1.7,.7,3.7,.9,5.2h.1c.2-1.6,.6-3.4,.9-5.3l1.3-6.1h3.6l1.2,6.3c.4,1.8,.6,3.4,.8,5h.1c.2-1.6,.5-3.4,.9-5.2l1.2-6.1h3.4l-3.8,15h-3.7l-1.3-6.5c-.3-1.5-.5-2.9-.7-4.6h-.1c-.2,1.7-.5,3.1-.8,4.6l-1.5,6.5h-3.7Z" fill="#fff"/><line x1="11.2" y1="68.3" x2="103.2" y2="68.3" fill="none" stroke="#fff" stroke-miterlimit="10"/></g><path d="M80.19,118.7c.81,.81,1.85,1.21,2.98,1.21,1.05,0,2.1-.4,2.98-1.21l15.32-15.35c1.61-1.62,1.61-4.28,0-5.9-1.61-1.62-4.27-1.62-5.89,0l-15.32,15.35c-1.69,1.62-1.69,4.28-.08,5.9Z" fill="#fff"/><path d="M66.8,138.01l9.03-9.05c1.61-1.62,1.61-4.28,0-5.9-1.61-1.62-4.27-1.62-5.89,0l-5.73,5.74v-.08l-.16,.16c-.81,.81-1.85,1.21-2.9,1.21s-2.1-.4-2.9-1.21c-1.61-1.62-1.61-4.2,0-5.82l20.24-20.28c1.61-1.62,1.61-4.28,0-5.9-1.61-1.62-4.27-1.62-5.89,0l-10.48,10.5c-.81,.81-1.85,1.21-2.9,1.21s-2.1-.4-2.9-1.21l-9.76-9.78c-8.14-8.16-21.37-8.16-29.43,0-3.95,3.96-6.13,9.21-6.13,14.79s2.18,10.83,6.13,14.79l39.11,39.19h0c.81,.73,1.77,1.13,2.82,1.13s2.1-.4,2.98-1.21l30.72-30.78c1.61-1.62,1.61-4.28,0-5.9-1.61-1.62-4.19-1.62-5.81-.08l-1.21,1.21-21.45,21.49c-.81,.81-1.85,1.21-2.9,1.21s-2.1-.4-2.9-1.21c-1.61-1.62-1.61-4.2,0-5.82" fill="#fff"/><ellipse cx="99.3" cy="121.37" rx="4.6" ry="4.61" fill="#fff"/><g><polygon points="12.75 91.48 12.75 88.58 102.15 88.58 102.15 91.48 103.9 91.48 103.9 86.83 11 86.83 11 91.48 12.75 91.48" fill="#fff"/><polygon points="102.15 128.52 102.15 170.12 12.75 170.12 12.75 128.52 11 128.52 11 171.88 103.9 171.88 103.9 128.52 102.15 128.52" fill="#fff"/></g></svg>