<svg xmlns="http://www.w3.org/2000/svg" width="16.945" height="26.603" viewBox="0 0 16.945 26.603"> <path d="M1669.662,87.893a7.063,7.063,0,0,0-2.109-2.7,7.989,7.989,0,0,0-2.742-1.357,10.316,10.316,0,0,0-5.516,0,7.993,7.993,0,0,0-2.744,1.357,7.072,7.072,0,0,0-2.107,2.7,10.888,10.888,0,0,0-.864,4.527,18.028,18.028,0,0,0,1.371,6.521,32.938,32.938,0,0,0,3.053,5.823,44.94,44.94,0,0,0,4.036,5.3,52.44,52.44,0,0,0,4.059-5.539,35.778,35.778,0,0,0,3.056-5.863,17.18,17.18,0,0,0,1.371-6.242A10.926,10.926,0,0,0,1669.662,87.893Zm-7.609,7.261a4.452,4.452,0,1,1,4.631-4.449A4.542,4.542,0,0,1,1662.053,95.154Z" transform="translate(-1653.581 -83.461)" fill="#000"></path> </svg>
