<svg id="copyright-logo-lumn-svg" xmlns="http://www.w3.org/2000/svg" xmlns:xlink="http://www.w3.org/1999/xlink" viewBox="0 0 205 119" width="205px" height="119px">
<defs>
<animate xlink:href="#Copyrightfin" attributeName="d" attributeType="XML" from="M 152.277,33.309 l 16.84,-25.309 l 34.883,0 l -17.488,24.921 l 11.478,18.079 l -33.041,0 Z m 9.448,-.035 l 11.522,-17.274 l 15.663,0 l -11.731,16.621 l 6.841,11.379 l -15.026,0 Z" to="M 152.277,33.309 l 16.84,-25.309 l 34.883,0 l -17.488,24.921 l 11.478,18.079 l -33.041,0 Z m 9.448,-.035 l 11.522,-17.274 l 15.663,0 l -11.731,16.621 l 6.841,11.379 l -15.026,0 Z" dur="2s" values="M 152.277,33.309 l 16.84,-25.309 l 34.883,0 l -17.488,24.921 l 11.478,18.079 l -33.041,0 Z m 9.448,-.035 l 11.522,-17.274 l 15.663,0 l -11.731,16.621 l 6.841,11.379 l -15.026,0 Z;
M 152.277,33.309 l 14.385,-25.694 l 37.765,-2.235 l -20.353,29.505 l 12.941,22.73 l -33.808,-4.473 Z m 7.679,.035 l 10.706,-17.612 l 15.882,0 l -11.882,18 l 6.449,12.802 l -14.567,-1.42 Z;
M 152.277,33.309 l 16.84,-25.309 l 34.883,0 l -17.488,24.921 l 11.478,18.079 l -33.041,0 Z m 9.448,-.035 l 11.522,-17.274 l 15.663,0 l -11.731,16.621 l 6.841,11.379 l -15.026,0 Z;
M 152.277,33.309 l 14.372,-23.65 l 24.882,1.235 l -11.735,20.824 l 7.765,15.264 l -24.353,3.177 Z m 8.196,-.069  l 9.529,-16.169 l 11.294,0.264 l -8.109,14.294 l 4.844,9.883 l -11.558,0.97 Z;
M 152.277,33.309 l 16.84,-25.309 l 34.883,0 l -17.488,24.921 l 11.478,18.079 l -33.041,0 Z m 9.448,-.035 l 11.522,-17.274 l 15.663,0 l -11.731,16.621 l 6.841,11.379 l -15.026,0 Z;
M 152.277,33.309 l 16.84,-25.309 l 34.883,0 l -17.488,24.921 l 11.478,18.079 l -33.041,0 Z m 9.448,-.035 l 11.522,-17.274 l 15.663,0 l -11.731,16.621 l 6.841,11.379 l -15.026,0 Z;" keyTimes="0; .2; .4; .6; .8; 1" repeatCount="indefinite" id="Copyrightwaggle" calcMode="spline" keySplines="0.455 0.03 0.515 0.955; 0.55 0.085 0.68 0.53; 0.25 0.46 0.45 0.94; 0.455 0.03 0.515 0.955; 0.5 0.5 0.5 0.5;"></animate>
<style>
#copyright-logo-lumn-svg {
    height: 1.1em;
    width: auto;
    overflow: visible;
    vertical-align: text-top;
}
</style>
</defs>
<g fill="currentcolor">
<path d="M114.7,89.1l-14.3,21.1H65.5L18.8,77.4l8.7-12.8L72.6,96l4.2-6.6L44.2,66.7l20-29.5h85.5l-27.3,40.5h9.4
l27.6-40.9l-1.8-7.4H63L22.8,1L12.3,16.2C11.6,16,10.9,16,10.2,16c-5.1,0.1-9.2,4.2-9.1,9.3s4.2,9.2,9.3,9.1c5-0.1,9.1-4.2,9.1-9.2 c0-1.5-0.4-2.9-1.1-4.2l6.2-9.2l32.1,22.7L37.9,62.3L31,57.5l-0.3-11.4L8,79.4L63.1,118h41.5l16.3-24.2L114.7,89.1z"></path>
<path d="M60.7,59.7c0,3.5,2.9,6.4,6.4,6.4s6.4-2.9,6.4-6.4s-2.9-6.4-6.4-6.4S60.7,56.2,60.7,59.7z"></path>
<polygon points="131,18.9 89.4,8.1 74.9,29.4 79.7,31.1 84.3,29.4 92.7,17 126.2,25.7 128.6,29.4 132.8,31.1 138,29.4"></polygon>
<path d="M107.9,75.7l-4.4,6.5l35.2,26.2l21.8-32.7H107.9z M147.2,82.8l-10.3,15.4l-20.7-15.4H147.2z"></path><path id="Copyrightfin" d="M 152.277 33.309 l 16.84 -25.309 l 34.883 0 l -17.488 24.921 l 11.478 18.079 l -33.041 0 Z m 9.448 -0.035 l 11.522 -17.274 l 15.663 0 l -11.731 16.621 l 6.841 11.379 l -15.026 0 Z" fill-rule="evenodd"></path>
<path id="Copyrightfin-back" d="M 152.277,33.309 l 14.372,-23.65 l 24.882,1.235 l -11.735,20.824 l 7.765,15.264 l -24.353,3.177 Z m 8.196,-.069  l 9.529,-16.169 l 11.294,0.264 l -8.109,14.294 l 4.844,9.883 l -11.558,0.97 Z" fill-rule="evenodd" fill-opacity="0"></path>
<path id="Copyrightfin-forward" d="M 152.277,33.309 l 14.385,-25.694 l 37.765,-2.235 l -20.353,29.505 l 12.941,22.73 l -33.808,-4.473 Z m 7.679,.035 l 10.706,-17.612 l 15.882,0 l -11.882,18 l 6.449,12.802 l -14.567,-1.42 Z" fill-rule="evenodd" fill-opacity="0"></path>
</g>
</svg>