<svg xmlns="http://www.w3.org/2000/svg" width="22.536" height="24.121" viewBox="0 0 22.536 24.121"> <path d="M1202.1,80a7.915,7.915,0,0,1,.841-3.491,7.253,7.253,0,0,1,1.115-1.613,17.768,17.768,0,0,1,1.965-1.78,1.608,1.608,0,0,1,2.309.143,12.178,12.178,0,0,1,1.911,2.622,6.026,6.026,0,0,1,.806,1.839,2.347,2.347,0,0,1-.895,2.486c-.5.42-1.047.793-1.534,1.229a1.715,1.715,0,0,0-.565,1.629,6.628,6.628,0,0,0,1.345,2.8,20.212,20.212,0,0,0,2.589,2.968,6.629,6.629,0,0,0,2.342,1.583,1.835,1.835,0,0,0,2.046-.472,19.263,19.263,0,0,1,1.513-1.371,2.266,2.266,0,0,1,2.5-.254,7.88,7.88,0,0,1,2.021,1.4c.326.288.675.551.985.855a4.24,4.24,0,0,1,1.135,1.533,1.388,1.388,0,0,1-.284,1.527,11.52,11.52,0,0,1-2.9,2.354,7.608,7.608,0,0,1-2.88.8,9.351,9.351,0,0,1-4.579-.9,14.864,14.864,0,0,1-3.667-2.39,22.043,22.043,0,0,1-1.728-1.595q-1.315-1.416-2.542-2.915a19.652,19.652,0,0,1-2.494-3.892,12.478,12.478,0,0,1-1.079-3.037C1202.236,81.383,1202.183,80.688,1202.1,80Z" transform="translate(-1202.096 -72.693)" fill="#000" fill-rule="evenodd"></path> </svg>
