<svg id="a" xmlns="http://www.w3.org/2000/svg" width="27" height="18.9" viewBox="0 0 27 18.9"><path id="b" d="m8.1,9.45c2.61,0,4.73-2.12,4.73-4.73S10.71,0,8.1,0,3.38,2.12,3.38,4.73h0c0,2.61,2.11,4.72,4.72,4.73,0,0,0,0,0,0Zm3.24,1.35h-.35c-1.82.9-3.96.9-5.78,0h-.35C2.18,10.8,0,12.98,0,15.66v1.21c0,1.12.91,2.03,2.02,2.03h12.15c1.12,0,2.02-.91,2.02-2.02v-1.21c0-2.68-2.17-4.86-4.86-4.86h0Zm8.91-1.35c2.24,0,4.05-1.81,4.05-4.05,0-2.24-1.81-4.05-4.05-4.05-2.24,0-4.05,1.81-4.05,4.05h0c0,2.24,1.81,4.05,4.05,4.05h0Zm2.03,1.35h-.16c-1.2.45-2.53.45-3.73,0h-.16c-.83,0-1.64.23-2.35.65,1.07,1.14,1.67,2.65,1.67,4.21v1.62c0,.09-.02.18-.03.27h7.45c1.12,0,2.02-.91,2.02-2.02,0-2.61-2.11-4.72-4.72-4.73,0,0,0,0,0,0Z"/></svg>