<svg id="a" xmlns="http://www.w3.org/2000/svg" width="19.24" height="17.98" viewBox="0 0 19.24 17.98"><g id="b"><path id="c" d="M18.16,15.24l-3.43-3.44c-.16-.15-.37-.24-.59-.24h-.56c2.42-3.12,1.86-7.62-1.26-10.04C9.2-.91,4.71-.34,2.28,2.78-.14,5.9,.42,10.39,3.54,12.82c2.59,2.01,6.22,2.01,8.8-.02v.56c0,.22,.09,.43,.24,.59l3.43,3.43c.32,.32,.84,.32,1.16,0,0,0,0,0,0,0l.97-.97c.32-.32,.32-.85,0-1.17h0Zm-10.22-3.67c-2.43,0-4.41-1.97-4.41-4.41S5.51,2.75,7.94,2.75s4.41,1.97,4.41,4.41c0,2.43-1.96,4.4-4.39,4.41,0,0,0,0-.01,0Z" fill="#000"/></g></svg>