<?xml version="1.0" encoding="UTF-8"?><svg id="a" xmlns="http://www.w3.org/2000/svg" width="32" height="36.92" viewBox="0 0 32 36.92"><path d="m28.02,7.9c-.25-.13-.49-.27-.73-.42-.68-.45-1.31-.98-1.87-1.59-1.39-1.59-1.91-3.21-2.1-4.34h0c-.16-.94-.09-1.55-.08-1.55h-6.34v24.52c0,.33,0,.65-.01.98,0,.04,0,.08,0,.12,0,.02,0,.04,0,.05h0c-.14,1.8-1.15,3.4-2.71,4.29-.8.45-1.7.69-2.62.69-2.95,0-5.35-2.41-5.35-5.38s2.39-5.38,5.35-5.38c.56,0,1.12.09,1.65.26v-6.46c-3.26-.42-6.55.54-9.07,2.66-1.09.95-2.01,2.08-2.72,3.35-.27.46-1.28,2.32-1.4,5.33-.08,1.71.44,3.48.68,4.21v.02c.15.43.75,1.9,1.72,3.14.78.99,1.71,1.87,2.75,2.59v-.02l.02.02c3.07,2.09,6.47,1.95,6.47,1.95.59-.02,2.56,0,4.8-1.06,2.49-1.18,3.9-2.93,3.9-2.93.9-1.05,1.62-2.24,2.13-3.53.57-1.51.77-3.32.77-4.04v-13.01c.08.05,1.1.72,1.1.72,0,0,1.48.95,3.78,1.56,1.65.44,3.88.53,3.88.53v-6.29c-.78.08-2.36-.16-3.98-.97Z"/></svg>