<svg id="a" xmlns="http://www.w3.org/2000/svg" width="23.67" height="31.76" viewBox="0 0 23.67 31.76"><g id="b"><path id="c" d="M2.6,14.91l6.18,3.02c.7,.34,.99,1.19,.65,1.9-.18,.37-.52,.65-.93,.75l-6.67,1.66c-.76,.19-1.52-.27-1.72-1.02-.02-.06-.03-.13-.03-.19-.2-1.78-.01-3.59,.56-5.29,.25-.74,1.05-1.14,1.79-.89,.06,.02,.12,.04,.17,.07Zm2.73,14.84c1.48,1.01,3.16,1.69,4.93,1.99,.77,.13,1.5-.38,1.63-1.15,.01-.06,.02-.13,.02-.19l.24-6.88c.03-.78-.58-1.44-1.37-1.47-.42-.01-.82,.16-1.1,.47l-4.6,5.11c-.52,.58-.48,1.47,.1,1.99,.05,.04,.1,.09,.16,.12h0Zm9.02-6.82l3.65,5.83c.42,.67,1.3,.87,1.96,.45,.05-.03,.1-.07,.15-.11,1.38-1.14,2.5-2.57,3.27-4.19,.33-.71,.02-1.56-.69-1.9-.05-.02-.1-.04-.15-.06l-6.54-2.13c-.75-.24-1.55,.17-1.79,.92-.13,.4-.07,.83,.15,1.19h0Zm9.2-8.2c-.72-1.64-1.78-3.11-3.13-4.3-.59-.52-1.48-.46-2,.13-.04,.04-.08,.09-.11,.14l-3.85,5.7c-.44,.64-.28,1.52,.36,1.96,.35,.24,.79,.31,1.2,.19l6.62-1.89c.76-.22,1.19-1.02,.97-1.77-.02-.06-.04-.11-.06-.16h0ZM3.79,1.87c-.71,.34-1.01,1.18-.67,1.89,.02,.03,.03,.06,.05,.09l6.46,11.19c.39,.68,1.25,.91,1.93,.53,.44-.25,.71-.72,.71-1.23V1.42C12.29,.64,11.66,0,10.88,0c-.04,0-.08,0-.12,0-2.42,.19-4.78,.82-6.97,1.87h0Z"/></g></svg>