<?xml version="1.0" encoding="UTF-8"?><svg id="a" xmlns="http://www.w3.org/2000/svg" width="38" height="26.92" viewBox="0 0 38 26.92"><g id="b"><g id="c"><g id="d"><path id="e" d="m15.08,18.42V7.67s10.27,5.39,10.27,5.39l-10.27,5.36Zm22.54-12.62s-.37-2.64-1.51-3.8c-1.45-1.52-3.06-1.53-3.81-1.62-5.32-.39-13.29-.39-13.29-.39h-.02s-7.98,0-13.29.39c-.74.09-2.36.1-3.81,1.62C.75,3.17.38,5.81.38,5.81c0,0-.38,3.1-.38,6.19v2.9c0,3.1.38,6.19.38,6.19,0,0,.37,2.64,1.51,3.8,1.45,1.52,3.35,1.48,4.19,1.64,3.04.29,12.92.39,12.92.39,0,0,7.98-.01,13.3-.4.74-.09,2.36-.1,3.81-1.62,1.14-1.16,1.51-3.8,1.51-3.8,0,0,.38-3.1.38-6.19v-2.9c0-3.1-.38-6.19-.38-6.19h0Z" fill-rule="evenodd"/></g></g></g></svg>